<svg width="40" height="40" viewBox="0 0 40 40" fill="none" xmlns="http://www.w3.org/2000/svg">
<path d="M12.8283 40H27.1717C34.2424 40 40 34 40 26.6316V13.3684C40 6 34.2424 0 27.1717 0H12.8283C5.75758 0 0 6 0 13.3684V26.7368C0 34 5.75758 40 12.8283 40ZM7.17172 1.36842L14.3434 8.31579H27.9798C30.6061 8.31579 32.7273 10.5263 32.7273 13.2632V27.4737C32.7273 30.2105 30.6061 32.4211 27.9798 32.4211H12.0202C9.39394 32.4211 7.27273 30.2105 7.27273 27.4737V1.36842H7.17172Z" fill="#FF4800"/>
<path d="M25.5647 27.4833L22.3323 24.1149H15.1606C14.7566 24.1149 14.3525 23.6939 14.3525 23.2728V15.7991C14.3525 15.3781 14.7566 14.957 15.1606 14.957H24.7566C25.1606 14.957 25.5647 15.3781 25.5647 15.7991V27.4833Z" fill="#FF4800"/>
</svg>
